<svg width="45" height="45" viewBox="0 0 45 45" fill="none" xmlns="http://www.w3.org/2000/svg">
<rect x="0.891022" y="0.37793" width="43.9485" height="43.9485" rx="7.56" fill="#C55C3B"/>
<path d="M12.1854 26.4078C12.5599 27.1868 13.3823 27.6476 14.2422 27.5602L12.5995 24.2408C12.5758 24.193 12.5642 24.1096 12.5406 24.0618C11.9436 24.6927 11.802 25.6284 12.1854 26.4078Z" fill="white"/>
<path d="M20.7374 27.2888L17.6091 28.837L20.8828 32.5086C21.3772 33.0716 22.1884 33.2314 22.8593 32.898C23.3399 32.6673 23.6822 32.222 23.7818 31.6983C23.8933 31.1918 23.7433 30.6631 23.3824 30.2906L20.7374 27.2888Z" fill="white"/>
<path d="M12.5283 24.0371L12.5514 24.0257L12.54 24.0026C12.5514 24.0257 12.5514 24.0257 12.5283 24.0371Z" fill="white"/>
<path d="M29.4855 15.2299L29.2944 15.3245L31.4217 19.6229L31.6128 19.5284C32.7998 18.941 33.2858 17.5025 32.6983 16.3156C32.1109 15.1286 30.6724 14.6425 29.4855 15.2299Z" fill="white"/>
<path d="M13.3159 23.8862L14.9941 27.2772C15.4545 28.1426 16.5196 28.4848 17.3979 28.0497L21.7442 25.8988L18.5532 19.4511L14.207 21.602C13.3473 22.0274 12.8904 23.0265 13.3159 23.8862Z" fill="white"/>
<path d="M22.5078 25.6397L33.0926 24.8013L26.2617 10.9984L19.1751 18.9055L22.5078 25.6397Z" fill="white"/>
</svg>
