<svg xmlns="http://www.w3.org/2000/svg" xmlns:xlink="http://www.w3.org/1999/xlink" viewBox="0 0 64 64"><defs><style>.cls-1{fill:url(#linear-gradient);}.cls-2{fill:#fff;}</style><linearGradient id="linear-gradient" x1="32" y1="60.71" x2="32" y2="-3.29" gradientUnits="userSpaceOnUse"><stop offset="0" stop-color="#a62631"/><stop offset="1" stop-color="#c53b4b"/></linearGradient></defs><title>Asset 5</title><g id="Layer_2" data-name="Layer 2"><g id="Layer_1-2" data-name="Layer 1"><rect class="cls-1" width="64" height="64" rx="11.31"/><path class="cls-2" d="M42.48,43.18c-.08-1.15-.38-2.26-.57-3.39a15,15,0,0,0-1.1-3.67,8.16,8.16,0,0,0-.66-1.19,1.19,1.19,0,0,0-.09-.15,5.83,5.83,0,0,0-5.55-3c-.82.06-1.66,0-2.49,0s-1.9,0-2.84,0a5.65,5.65,0,0,0-5.5,3.17c-.12.19-.23.4-.34.6s-.18.39-.26.58a17.25,17.25,0,0,0-1.36,7.08,2.16,2.16,0,0,0,.35,1.42,2.31,2.31,0,0,0,1.12.71,9.55,9.55,0,0,0,1.16.33s0,0,0,0a20.22,20.22,0,0,0,4.76.6,53.25,53.25,0,0,0,8-.17,23.22,23.22,0,0,0,2.52-.41,7.56,7.56,0,0,0,2-.74,1.67,1.67,0,0,0,.45-.35A1.74,1.74,0,0,0,42.48,43.18Zm-5.42,1.28-.85.08a37.33,37.33,0,0,0-3.86.24c-1.8-.16-3.52-.19-5.21-.37a19.06,19.06,0,0,1-2-.28h0a10.94,10.94,0,0,1-1.26-.29c-.38-.1-.72-.16-.67-.66a23,23,0,0,1,1.07-5.71,1,1,0,0,1,0-.14,10.38,10.38,0,0,1,.59-1.26h0c0-.08.08-.17.12-.25a4.58,4.58,0,0,1,4.12-2.49,46.44,46.44,0,0,1,6.57.17,4.13,4.13,0,0,1,2.94,2.08,5.09,5.09,0,0,1,.32.54,9.52,9.52,0,0,1,.67,1.36A23.46,23.46,0,0,1,41,43.07c.06.47-.26.56-.58.68a8.45,8.45,0,0,1-1.3.39A17.32,17.32,0,0,1,37.06,44.46Z"/><path class="cls-2" d="M37.77,24.11c.25,3.49-3,6.53-5.88,6.41A6.23,6.23,0,0,1,26,24.08a6.22,6.22,0,0,1,5.92-6.41A6.13,6.13,0,0,1,37.77,24.11Zm-5.88,4.67c2.49.22,4.42-2.08,4.38-4.7a4.5,4.5,0,0,0-4.34-4.72c-2.62-.14-4.34,2.57-4.34,4.76C27.58,26.54,29.4,29,31.89,28.78Z"/><path class="cls-2" d="M52.52,41.34a9.4,9.4,0,0,0-1.33-3.63,4.24,4.24,0,0,0-4-2.19c-.6,0-1.2,0-1.8,0s-1.38,0-2.07,0a3.87,3.87,0,0,0-2.55.67,4.59,4.59,0,0,0-1.06,1.05,7.12,7.12,0,0,1,.59,1.21,3.35,3.35,0,0,1,1-1.2,3.31,3.31,0,0,1,1.94-.6,33,33,0,0,1,4.77.12,3,3,0,0,1,2.13,1.5,12.9,12.9,0,0,1,1.67,5.45c.05.34-.18.41-.4.49a11,11,0,0,1-3,.58c-1,.1-2,0-2.8.17-1.07-.08-2.1-.13-3.12-.2a16.32,16.32,0,0,1-2.69-.4,13.19,13.19,0,0,1-1.78.28c.14.33.42.52.94.72a9.5,9.5,0,0,0,1.34.36,16.65,16.65,0,0,0,3,.31,35,35,0,0,0,5.79-.13,8.83,8.83,0,0,0,3.3-.83,1.16,1.16,0,0,0,.6-1.28A22.41,22.41,0,0,0,52.52,41.34Z"/><path class="cls-2" d="M49.53,30a4.51,4.51,0,0,1-4.27,4.65A4.52,4.52,0,0,1,41,29.94a4.51,4.51,0,0,1,4.3-4.65A4.45,4.45,0,0,1,49.53,30Zm-4.27,3.39a3.14,3.14,0,0,0,3.17-3.41,3.26,3.26,0,0,0-3.15-3.43c-1.9-.1-3.15,1.86-3.15,3.45C42.13,31.72,43.45,33.48,45.26,33.35Z"/><path class="cls-2" d="M11.05,43.79a1.16,1.16,0,0,0,.6,1.28,8.83,8.83,0,0,0,3.3.83,35,35,0,0,0,5.79.13,16.65,16.65,0,0,0,3-.31,9.5,9.5,0,0,0,1.34-.36c.52-.2.8-.39.94-.72a13.19,13.19,0,0,1-1.78-.28,16.32,16.32,0,0,1-2.69.4c-1,.07-2.05.12-3.12.2-.82-.18-1.82-.07-2.8-.17a11,11,0,0,1-3-.58c-.22-.08-.45-.15-.4-.49a12.9,12.9,0,0,1,1.67-5.45A3,3,0,0,1,16,36.77a33,33,0,0,1,4.77-.12,3.31,3.31,0,0,1,1.94.6,3.35,3.35,0,0,1,1.05,1.2,7.12,7.12,0,0,1,.59-1.21,4.59,4.59,0,0,0-1.06-1.05,3.87,3.87,0,0,0-2.55-.67c-.69,0-1.38,0-2.07,0s-1.2,0-1.8,0a4.24,4.24,0,0,0-4,2.19,9.4,9.4,0,0,0-1.33,3.63A22.41,22.41,0,0,0,11.05,43.79Z"/><path class="cls-2" d="M18.72,25.29A4.51,4.51,0,0,1,23,29.94a4.52,4.52,0,0,1-4.28,4.67A4.51,4.51,0,0,1,14.47,30,4.45,4.45,0,0,1,18.72,25.29ZM21.87,30c0-1.59-1.25-3.55-3.15-3.45a3.26,3.26,0,0,0-3.15,3.43,3.14,3.14,0,0,0,3.17,3.41C20.55,33.48,21.87,31.72,21.87,30Z"/></g></g></svg>