<svg width="44" height="44" viewBox="0 0 44 44" fill="none" xmlns="http://www.w3.org/2000/svg">
<rect width="43.9485" height="43.9485" rx="7.56" fill="#C5A73B"/>
<g clip-path="url(#clip0_4310_3)">
<path d="M16.3365 17.9247C15.8196 17.946 14.0439 16.4903 13.9805 16.0303C13.9344 15.7081 14.0958 15.4868 14.3456 15.3354C14.6627 15.1413 15.0566 15.1782 15.2527 15.4325C16.1097 16.5369 16.6843 15.8575 17.3127 15.1821C17.7258 14.7376 18.1774 14.3241 18.6463 13.9398C18.923 13.7127 19.2689 13.7418 19.5495 13.9786C19.8339 14.2193 19.9531 14.5687 19.684 14.8463C18.7078 15.8556 17.6989 16.8319 16.692 17.8102C16.5998 17.8956 16.4287 17.8956 16.3365 17.9247Z" fill="white"/>
<path d="M26.9656 16.993C26.9656 16.4942 26.9656 15.9973 26.9656 15.4985C27.4537 14.9608 27.4633 14.4251 26.9656 13.8894C26.9656 13.3905 26.9656 12.8898 26.9656 12.3909C27.4057 12.1153 27.4172 11.8397 26.9656 11.566C26.9656 11.3195 26.9656 11.073 26.9656 10.8265C27.0098 10.7838 27.0559 10.7411 27.1001 10.7003C27.0521 10.6867 27.0021 10.6712 26.9541 10.6576C26.7926 10.2442 26.4544 10.2325 26.0835 10.2325C21.7752 10.2384 17.4668 10.2636 13.1565 10.2151C12.186 10.2034 12.284 10.8032 12.2225 11.3933C11.7786 11.533 11.9247 11.9115 11.9228 12.2065C11.917 17.4841 11.917 22.7617 11.9208 28.0392C11.9208 28.3478 11.8324 28.703 12.2206 28.8758C12.1976 29.6037 12.58 29.7745 13.2468 29.7667C15.8045 29.7356 18.3642 29.7531 20.9219 29.7551C21.3966 29.7551 21.9981 29.6716 21.9789 30.3859C21.9596 31.0827 21.3639 30.9895 20.8874 30.9895C18.2969 30.9895 15.7065 30.9953 13.1161 30.9876C11.6768 30.9837 11.0061 30.3141 11.0042 28.8505C10.9965 22.9383 10.9965 17.026 11.0042 11.1137C11.0081 9.6813 11.6499 9.01359 13.0431 9.00971C17.4245 8.99807 21.8059 8.99612 26.1892 9.00777C27.5152 9.01165 28.1686 9.68518 28.1762 11.0633C28.1935 14.0349 28.1839 17.0085 28.182 19.9802C28.182 20.4868 28.2915 21.1797 27.5805 21.1856C26.7984 21.1914 26.8945 20.5101 26.9656 19.9492C27.2961 19.8075 27.3115 19.6677 26.9656 19.526C26.9656 19.2174 26.9656 18.9107 26.9675 18.6021C27.4537 18.0664 27.4633 17.5287 26.9656 16.993Z" fill="white"/>
<path d="M23.4563 30.1898C23.3563 29.5435 23.8425 29.1378 24.1288 28.6817C25.0128 27.2686 25.9929 25.9177 26.8864 24.5105C27.2131 23.9961 27.5629 23.8894 28.076 24.1242C28.4507 24.297 28.8485 24.4348 29.1963 24.6502C30.8239 25.6615 30.9239 26.1312 29.865 27.6976C29.0771 28.8641 28.2739 30.021 27.4783 31.1817C27.0575 31.0536 26.8845 31.5485 26.5232 31.5679C25.8583 30.7702 25.1819 29.988 24.0155 30.0151C23.8291 30.0734 23.6427 30.1316 23.4563 30.1898Z" fill="white"/>
<path d="M19.6014 20.9002C21.2963 20.9002 22.9893 20.9002 24.6842 20.9002C25.0128 20.9002 25.3856 20.8808 25.4029 21.3292C25.4221 21.83 25.0282 21.8474 24.6611 21.8474C21.2732 21.8474 17.8853 21.8455 14.4955 21.8494C14.1515 21.8494 13.8018 21.8203 13.7787 21.401C13.7518 20.8905 14.1496 20.8983 14.5186 20.8983C16.2116 20.9022 17.9065 20.9002 19.6014 20.9002Z" fill="white"/>
<path d="M19.6936 23.6312C21.3251 23.6312 22.9547 23.6312 24.5862 23.6312C24.9398 23.6312 25.376 23.5846 25.401 24.0718C25.4298 24.6522 24.9456 24.5804 24.5689 24.5804C21.2444 24.5823 17.918 24.5804 14.5935 24.5784C14.2476 24.5784 13.798 24.6522 13.7768 24.1514C13.7538 23.5885 14.2246 23.6332 14.6108 23.6332C16.3038 23.6312 17.9987 23.6332 19.6936 23.6312Z" fill="white"/>
<path d="M27.7147 23.4352C28.7543 21.5854 30.3493 21.2807 31.4984 22.6335C32.2229 23.4856 32.1499 24.7492 31.3543 25.5237C31.1775 25.6964 31.0661 25.7547 30.9162 25.5276C30.1533 24.3766 29.0291 23.7574 27.7147 23.4352Z" fill="white"/>
<path d="M12.2203 28.8758C11.8321 28.703 11.9205 28.3478 11.9205 28.0392C11.9166 22.7616 11.9166 17.4841 11.9243 12.2065C11.9243 11.9134 11.7802 11.5349 12.2241 11.3932C12.2222 17.222 12.2222 23.0489 12.2203 28.8758Z" fill="white"/>
<path d="M23.4563 30.1898C23.6427 30.1316 23.8291 30.0734 24.0174 30.0151C23.9521 30.6149 23.8694 31.2147 23.8252 31.8144C23.7657 32.6219 24.1289 32.8781 24.8168 32.5171C25.3933 32.2143 25.9564 31.8843 26.5252 31.5679C26.8865 31.5485 27.0594 31.0536 27.4802 31.1817C27.1958 32.0124 26.4272 32.2919 25.7738 32.6918C25.1204 33.0916 24.4382 33.439 23.7753 33.8214C23.2103 34.1475 22.9278 34.0524 23.0239 33.342C23.1642 32.29 23.3121 31.2399 23.4563 30.1898Z" fill="white"/>
<path d="M23.2487 27.2551C20.1779 27.3502 17.1071 27.3735 14.0343 27.2434C13.9997 26.7116 14.3514 26.7135 14.728 26.7135C17.3396 26.7174 19.9531 26.7193 22.5646 26.7135C22.9489 26.7116 23.2852 26.7329 23.2487 27.2551Z" fill="white"/>
<path d="M23.2487 27.255C23.2852 26.7329 22.9489 26.7116 22.5646 26.7135C19.9531 26.7193 17.3396 26.7193 14.728 26.7135C14.3514 26.7135 14.0016 26.7135 14.0343 27.2434C13.6519 26.5912 13.748 26.3816 14.5109 26.3738C16.4941 26.3544 18.4772 26.368 20.4623 26.3661C21.2944 26.3661 22.1284 26.3311 22.9566 26.3777C23.6023 26.4146 23.6772 26.6883 23.2487 27.255Z" fill="white"/>
<path d="M23.5889 12.6607C24.0039 12.6607 24.419 12.6549 24.8322 12.6627C25.1454 12.6685 25.4241 12.7539 25.4068 13.144C25.3895 13.5342 25.0955 13.5808 24.7899 13.5808C23.929 13.5846 23.0662 13.5846 22.2053 13.5866C21.8824 13.5866 21.6134 13.474 21.6249 13.1052C21.6364 12.7267 21.9439 12.6685 22.2475 12.6646C22.6934 12.6588 23.1411 12.6627 23.5869 12.6627C23.5889 12.6627 23.5889 12.6627 23.5889 12.6607Z" fill="white"/>
<path d="M25.3068 15.5994C25.5759 16.0439 25.3683 16.3117 24.9398 16.3311C23.9828 16.37 23.0162 16.4049 22.0669 16.3117C21.5058 16.2574 21.4078 15.875 21.9074 15.4887C21.9266 15.7275 22.0246 15.9895 22.2571 15.9876C23.2852 15.9798 24.3767 16.4049 25.3068 15.5994Z" fill="white"/>
<path d="M21.9074 18.2236C22.9951 18.1266 24.0808 18.0994 25.1665 18.2372C24.7707 18.8234 22.4051 19.0272 21.942 18.505C21.892 18.4488 21.917 18.3187 21.9074 18.2236Z" fill="white"/>
<path d="M21.9074 18.2236C21.917 18.3187 21.8901 18.4488 21.942 18.505C22.4051 19.0272 24.7726 18.8234 25.1665 18.2372C25.6662 18.6603 25.4644 19.0291 24.9629 19.0738C23.9943 19.1572 23.0047 19.1689 22.04 19.0641C21.55 19.0116 21.3751 18.6002 21.9074 18.2236Z" fill="white"/>
<path d="M25.3068 15.5994C24.3767 16.403 23.2852 15.9779 22.2571 15.9876C22.0246 15.9895 21.9266 15.7275 21.9074 15.4887C23.0431 15.4441 24.1846 15.2345 25.3068 15.5994Z" fill="white"/>
<path d="M26.9652 13.8894C27.4629 14.4251 27.4533 14.9627 26.9652 15.4984C26.9652 14.9627 26.9652 14.4251 26.9652 13.8894Z" fill="white"/>
<path d="M26.9652 16.993C27.4629 17.5287 27.4533 18.0664 26.9652 18.6021C26.9652 18.0664 26.9652 17.5287 26.9652 16.993Z" fill="white"/>
<path d="M26.9652 11.566C27.4187 11.8416 27.4072 12.1153 26.9652 12.3909C26.9652 12.1153 26.9652 11.8397 26.9652 11.566Z" fill="white"/>
<path d="M26.9652 19.526C27.3111 19.6658 27.2957 19.8075 26.9652 19.9492C26.9652 19.8075 26.9652 19.6677 26.9652 19.526Z" fill="white"/>
<path d="M26.9537 10.6557C27.0017 10.6693 27.0517 10.6848 27.0997 10.6984C27.0555 10.7411 27.0094 10.7838 26.9652 10.8245C26.9326 10.7721 26.9287 10.7158 26.9537 10.6557Z" fill="white"/>
</g>
<defs>
<clipPath id="clip0_4310_3">
<rect width="21" height="25" fill="white" transform="translate(11 9)"/>
</clipPath>
</defs>
</svg>
