<svg width="44" height="44" viewBox="0 0 44 44" fill="none" xmlns="http://www.w3.org/2000/svg">
<rect width="43.9485" height="43.9485" rx="7.56" fill="#A1C53B"/>
<path d="M21.4999 20.8695C23.9372 20.8695 25.913 18.8938 25.913 16.4565C25.913 14.0192 23.9372 12.0434 21.4999 12.0434C19.0627 12.0434 17.0869 14.0192 17.0869 16.4565C17.0869 18.8938 19.0627 20.8695 21.4999 20.8695Z" fill="white"/>
<path d="M30.3261 23.3913C32.067 23.3913 33.4782 21.98 33.4782 20.2391C33.4782 18.4982 32.067 17.087 30.3261 17.087C28.5852 17.087 27.1739 18.4982 27.1739 20.2391C27.1739 21.98 28.5852 23.3913 30.3261 23.3913Z" fill="white"/>
<path d="M12.7634 23.3913C14.5043 23.3913 15.9156 21.98 15.9156 20.2391C15.9156 18.4982 14.5043 17.087 12.7634 17.087C11.0225 17.087 9.61127 18.4982 9.61127 20.2391C9.61127 21.98 11.0225 23.3913 12.7634 23.3913Z" fill="white"/>
<path d="M21.5 22.1305C16.981 22.1305 13.3043 25.8071 13.3043 30.3261C13.3043 30.6741 13.5868 30.9566 13.9348 30.9566H29.0652C29.4132 30.9566 29.6956 30.6741 29.6956 30.3261C29.6956 25.8071 26.0189 22.1305 21.5 22.1305Z" fill="white"/>
<path d="M13.8503 24.7883C13.4645 24.7064 13.0723 24.6522 12.6739 24.6522C9.54569 24.6522 7 27.1979 7 30.3261C7 30.6741 7.28245 30.9565 7.63045 30.9565H12.1595C12.0888 30.7586 12.0435 30.548 12.0435 30.3261C12.0435 28.257 12.7193 26.3468 13.8503 24.7883Z" fill="white"/>
<path d="M30.3261 24.6522C29.9277 24.6522 29.5355 24.7064 29.1497 24.7883C30.2807 26.3468 30.9565 28.257 30.9565 30.3261C30.9565 30.548 30.9112 30.7585 30.8405 30.9565H35.3695C35.7175 30.9565 36 30.6741 36 30.3261C36 27.1979 33.4543 24.6522 30.3261 24.6522Z" fill="white"/>
</svg>
